<svg width="325" height="57" viewBox="0 0 325 57" fill="none" xmlns="http://www.w3.org/2000/svg">
<rect width="50.7716" height="53" rx="5" fill="#00C189"/>
<path d="M8.80812 8.63636L22.0716 32.1449V45H29.7066V32.1449L42.9701 8.63636H34.3585L26.0666 24.2969H25.7115L17.4196 8.63636H8.80812Z" fill="white"/>
<path d="M71.8706 45.625C79.9956 45.625 85.4644 39.4531 85.4644 30.1562C85.4644 20.7812 79.9956 14.6094 71.8706 14.6094C63.7456 14.6094 58.2769 20.7812 58.2769 30.1562C58.2769 39.4531 63.7456 45.625 71.8706 45.625ZM71.8706 41.4844C65.6987 41.4844 62.8862 36.1719 62.8862 30.1562C62.8862 24.1406 65.6987 18.75 71.8706 18.75C78.0425 18.75 80.855 24.1406 80.855 30.1562C80.855 36.1719 78.0425 41.4844 71.8706 41.4844ZM97.1099 26.9531C97.1099 21.7187 100.352 18.75 104.766 18.75C109.043 18.75 111.641 21.543 111.641 26.25V45H116.25V25.9375C116.25 18.2812 112.168 14.6094 106.094 14.6094C101.563 14.6094 98.7505 16.6406 97.3442 19.6875H96.9536V15H92.5005V45H97.1099V26.9531ZM126.568 56.25C130.728 56.25 133.658 54.043 135.396 49.375L148.169 15.0781L143.13 15L134.849 38.9062H134.537L126.255 15H121.255L132.349 45.1563L131.49 47.5C129.81 52.0703 127.74 52.5 124.38 51.6406L123.208 55.7031C123.677 55.9375 125.005 56.25 126.568 56.25ZM202.549 17.5C201.065 9.29687 194.502 4.45312 186.456 4.45312C176.221 4.45312 168.799 12.3438 168.799 25C168.799 37.6562 176.221 45.5469 186.456 45.5469C194.502 45.5469 201.065 40.7031 202.549 32.5H197.706C196.534 38.0469 191.768 41.0156 186.456 41.0156C179.19 41.0156 173.487 35.3906 173.487 25C173.487 14.6094 179.19 8.98437 186.456 8.98437C191.768 8.98437 196.534 11.9531 197.706 17.5H202.549ZM218.58 45.7031C223.814 45.7031 226.548 42.8906 227.486 40.9375H227.72V45H232.33V25.2344C232.33 15.7031 225.064 14.6094 221.236 14.6094C216.705 14.6094 211.548 16.1719 209.205 21.6406L213.58 23.2031C214.595 21.0156 216.998 18.6719 221.392 18.6719C225.63 18.6719 227.72 20.918 227.72 24.7656V24.9219C227.72 27.1484 225.455 26.9531 219.986 27.6563C214.419 28.3789 208.345 29.6094 208.345 36.4844C208.345 42.3437 212.876 45.7031 218.58 45.7031ZM219.283 41.5625C215.611 41.5625 212.955 39.9219 212.955 36.7187C212.955 33.2031 216.158 32.1094 219.751 31.6406C221.705 31.4062 226.939 30.8594 227.72 29.9219V34.1406C227.72 37.8906 224.751 41.5625 219.283 41.5625ZM245.352 5H240.743V45H245.352V5ZM275.044 21.7187C273.599 17.4609 270.357 14.6094 264.419 14.6094C258.091 14.6094 253.404 18.2031 253.404 23.2812C253.404 27.4219 255.865 30.1953 261.373 31.4844L266.373 32.6562C269.4 33.3594 270.826 34.8047 270.826 36.875C270.826 39.4531 268.091 41.5625 263.794 41.5625C260.025 41.5625 257.662 39.9414 256.841 36.7187L252.466 37.8125C253.541 42.9102 257.74 45.625 263.873 45.625C270.845 45.625 275.591 41.8164 275.591 36.6406C275.591 32.4609 272.974 29.8242 267.623 28.5156L263.169 27.4219C259.615 26.543 258.013 25.3516 258.013 23.0469C258.013 20.4687 260.748 18.5937 264.419 18.5937C268.443 18.5937 270.103 20.8203 270.904 22.8906L275.044 21.7187ZM282.53 45H287.139V15H282.53V45ZM284.874 10C286.67 10 288.155 8.59375 288.155 6.875C288.155 5.15625 286.67 3.75 284.874 3.75C283.077 3.75 281.592 5.15625 281.592 6.875C281.592 8.59375 283.077 10 284.874 10ZM300.191 26.9531C300.191 21.7187 303.433 18.75 307.847 18.75C312.125 18.75 314.722 21.543 314.722 26.25V45H319.332V25.9375C319.332 18.2812 315.25 14.6094 309.175 14.6094C304.644 14.6094 301.832 16.6406 300.425 19.6875H300.035V15H295.582V45H300.191V26.9531Z" fill="#34393D"/>
</svg>
