<svg width="324" height="57" viewBox="0 0 324 57" fill="none" xmlns="http://www.w3.org/2000/svg">
<rect width="50.7716" height="53" rx="5" fill="#00C189"/>
<path d="M8.80812 8.63636L22.0716 32.1449V45H29.7066V32.1449L42.9701 8.63636H34.3585L26.0666 24.2969H25.7115L17.4196 8.63636H8.80812Z" fill="white"/>
<path d="M70.8706 45.625C78.9956 45.625 84.4644 39.4531 84.4644 30.1562C84.4644 20.7812 78.9956 14.6094 70.8706 14.6094C62.7456 14.6094 57.2769 20.7812 57.2769 30.1562C57.2769 39.4531 62.7456 45.625 70.8706 45.625ZM70.8706 41.4844C64.6987 41.4844 61.8862 36.1719 61.8862 30.1562C61.8862 24.1406 64.6987 18.75 70.8706 18.75C77.0425 18.75 79.855 24.1406 79.855 30.1562C79.855 36.1719 77.0425 41.4844 70.8706 41.4844ZM96.1099 26.9531C96.1099 21.7187 99.3521 18.75 103.766 18.75C108.043 18.75 110.641 21.543 110.641 26.25V45H115.25V25.9375C115.25 18.2812 111.168 14.6094 105.094 14.6094C100.563 14.6094 97.7505 16.6406 96.3442 19.6875H95.9536V15H91.5005V45H96.1099V26.9531ZM125.568 56.25C129.728 56.25 132.658 54.043 134.396 49.375L147.169 15.0781L142.13 15L133.849 38.9062H133.537L125.255 15H120.255L131.349 45.1563L130.49 47.5C128.81 52.0703 126.74 52.5 123.38 51.6406L122.208 55.7031C122.677 55.9375 124.005 56.25 125.568 56.25ZM201.549 17.5C200.065 9.29687 193.502 4.45312 185.456 4.45312C175.221 4.45312 167.799 12.3438 167.799 25C167.799 37.6562 175.221 45.5469 185.456 45.5469C193.502 45.5469 200.065 40.7031 201.549 32.5H196.706C195.534 38.0469 190.768 41.0156 185.456 41.0156C178.19 41.0156 172.487 35.3906 172.487 25C172.487 14.6094 178.19 8.98437 185.456 8.98437C190.768 8.98437 195.534 11.9531 196.706 17.5H201.549ZM217.58 45.7031C222.814 45.7031 225.548 42.8906 226.486 40.9375H226.72V45H231.33V25.2344C231.33 15.7031 224.064 14.6094 220.236 14.6094C215.705 14.6094 210.548 16.1719 208.205 21.6406L212.58 23.2031C213.595 21.0156 215.998 18.6719 220.392 18.6719C224.63 18.6719 226.72 20.918 226.72 24.7656V24.9219C226.72 27.1484 224.455 26.9531 218.986 27.6563C213.419 28.3789 207.345 29.6094 207.345 36.4844C207.345 42.3437 211.876 45.7031 217.58 45.7031ZM218.283 41.5625C214.611 41.5625 211.955 39.9219 211.955 36.7187C211.955 33.2031 215.158 32.1094 218.751 31.6406C220.705 31.4062 225.939 30.8594 226.72 29.9219V34.1406C226.72 37.8906 223.751 41.5625 218.283 41.5625ZM244.352 5H239.743V45H244.352V5ZM274.044 21.7187C272.599 17.4609 269.357 14.6094 263.419 14.6094C257.091 14.6094 252.404 18.2031 252.404 23.2812C252.404 27.4219 254.865 30.1953 260.373 31.4844L265.373 32.6562C268.4 33.3594 269.826 34.8047 269.826 36.875C269.826 39.4531 267.091 41.5625 262.794 41.5625C259.025 41.5625 256.662 39.9414 255.841 36.7187L251.466 37.8125C252.541 42.9102 256.74 45.625 262.873 45.625C269.845 45.625 274.591 41.8164 274.591 36.6406C274.591 32.4609 271.974 29.8242 266.623 28.5156L262.169 27.4219C258.615 26.543 257.013 25.3516 257.013 23.0469C257.013 20.4687 259.748 18.5937 263.419 18.5937C267.443 18.5937 269.103 20.8203 269.904 22.8906L274.044 21.7187ZM281.53 45H286.139V15H281.53V45ZM283.874 10C285.67 10 287.155 8.59375 287.155 6.875C287.155 5.15625 285.67 3.75 283.874 3.75C282.077 3.75 280.592 5.15625 280.592 6.875C280.592 8.59375 282.077 10 283.874 10ZM299.191 26.9531C299.191 21.7187 302.433 18.75 306.847 18.75C311.125 18.75 313.722 21.543 313.722 26.25V45H318.332V25.9375C318.332 18.2812 314.25 14.6094 308.175 14.6094C303.644 14.6094 300.832 16.6406 299.425 19.6875H299.035V15H294.582V45H299.191V26.9531Z" fill="#ECF1F7"/>
</svg>
